<?xml version="1.0" encoding="UTF-8" standalone="no"?>
<!-- Created with Inkscape (http://www.inkscape.org/) -->

<svg
   width="210mm"
   height="297mm"
   viewBox="0 0 210 297"
   version="1.1"
   id="svg248"
   inkscape:version="1.2.2 (b0a8486, 2022-12-01)"
   sodipodi:docname="single_vector.svg"
   xmlns:inkscape="http://www.inkscape.org/namespaces/inkscape"
   xmlns:sodipodi="http://sodipodi.sourceforge.net/DTD/sodipodi-0.dtd"
   xmlns="http://www.w3.org/2000/svg"
   xmlns:svg="http://www.w3.org/2000/svg">
  <sodipodi:namedview
     id="namedview250"
     pagecolor="#ffffff"
     bordercolor="#666666"
     borderopacity="1.0"
     inkscape:showpageshadow="2"
     inkscape:pageopacity="0.0"
     inkscape:pagecheckerboard="0"
     inkscape:deskcolor="#d1d1d1"
     inkscape:document-units="mm"
     showgrid="false"
     inkscape:zoom="0.2102413"
     inkscape:cx="394.78447"
     inkscape:cy="561.25984"
     inkscape:window-width="707"
     inkscape:window-height="480"
     inkscape:window-x="2943"
     inkscape:window-y="230"
     inkscape:window-maximized="0"
     inkscape:current-layer="layer1" />
  <defs
     id="defs245" />
  <g
     inkscape:label="Layer 1"
     inkscape:groupmode="layer"
     id="layer1">
    <path
       style="fill:none;stroke:#000000;stroke-width:0.264583px;stroke-linecap:butt;stroke-linejoin:miter;stroke-opacity:1"
       d="m 80.542372,80.542372 c -5.360894,-0.94031 -11.1639,-2.598134 -16.360168,0 -1.35282,0.67641 -2.340544,2.038655 -3.775425,2.51695 -10.591609,3.530536 3.205054,-4.119478 -7.550848,1.258475 -1.35282,0.67641 -2.478466,1.738772 -3.775424,2.516946 -0.804336,0.482606 -1.853674,0.595202 -2.516947,1.258475 -3.119909,3.119909 -1.789287,3.313168 -3.775424,6.292374 -0.329076,0.493614 -1.114592,0.682937 -1.258475,1.258475 -0.305226,1.220898 0,2.516949 0,3.775424 0,2.097459 -0.344821,4.223449 0,6.292369 0.218083,1.3085 0.838983,2.51695 1.258475,3.77543 3.16321,9.48963 -1.103757,-2.20751 3.775424,7.55084 0.593249,1.1865 0.320461,2.83742 1.258475,3.77543 0.938011,0.93801 2.671667,0.52264 3.775421,1.25847 11.445007,7.63001 -4.939186,-0.0872 8.809323,7.55085 1.974747,1.09708 4.228045,1.59947 6.292374,2.51695 1.714331,0.76192 3.326029,1.74064 5.033896,2.51695 2.908395,1.322 5.914292,2.42441 8.809323,3.77542 3.400042,1.58669 6.661089,3.46158 10.067796,5.0339 2.051108,0.94666 4.309181,1.43521 6.292373,2.51695 6.261259,3.41523 6.304899,3.78794 10.067799,7.55085 0.83898,0.83898 1.9065,1.49953 2.51695,2.51695 0.6825,1.1375 0.83898,2.51695 1.25847,3.77542 0.41949,1.25847 0.83898,2.51695 1.25848,3.77542 0.41949,1.25848 1.04039,2.46693 1.25847,3.77543 0.20689,1.24135 0,2.51695 0,3.77542 0,1.67797 0,3.35593 0,5.0339 0,1.25847 0,2.51695 0,3.77542 0,1.25848 0.17797,2.5296 0,3.77542 -0.2446,1.71223 -0.78331,3.37084 -1.25847,5.0339 -0.36444,1.27551 -0.66523,2.58893 -1.25848,3.77543 -2.6368,5.27361 -1.9776,2.69673 -6.29237,6.29237 -1.36725,1.13937 -2.32718,2.74097 -3.77542,3.77542 -6.291547,4.49396 -3.480672,0.95237 -10.067802,3.77543 -1.390206,0.5958 -2.371104,1.95522 -3.775425,2.51695 -0.778975,0.31159 -1.703014,-0.20349 -2.516946,0 -0.910006,0.2275 -1.627074,0.96185 -2.51695,1.25847 -3.746267,1.24876 2.582146,-2.9799 -3.775424,1.25848 -0.493615,0.32907 -0.727856,0.99316 -1.258475,1.25847 -0.375205,0.1876 -0.883269,-0.1876 -1.258475,0 -5.237469,2.61874 1.345354,-0.0869 -1.258474,2.51695 -0.296625,0.29662 -0.961848,-0.29663 -1.258475,0 -0.593251,0.59325 0.593251,1.9237 0,2.51695 -0.296624,0.29662 -0.961848,-0.29663 -1.258475,0 -0.593248,0.59325 0.593252,1.9237 0,2.51695 -0.296624,0.29662 -0.883269,-0.1876 -1.258474,0 -0.53062,0.26531 -0.727856,0.99316 -1.258475,1.25847 -0.375203,0.1876 -0.883269,-0.1876 -1.258475,0 -0.530619,0.26531 -0.727853,0.99317 -1.258472,1.25848 -0.375206,0.1876 -0.883272,-0.1876 -1.258475,0 -0.530622,0.26531 -0.695669,1.07087 -1.258474,1.25847 -0.795931,0.26531 -1.677967,0 -2.51695,0 -0.419492,0 -0.883272,-0.1876 -1.258475,0 -0.530619,0.26531 -0.838983,0.83898 -1.258474,1.25848 -0.419492,0.41949 -0.993164,0.72785 -1.258475,1.25847 -0.187603,0.37521 0.296624,0.96185 0,1.25848 -0.296625,0.29662 -0.838983,0 -1.258475,0 -0.838983,0 -1.677966,0 -2.516949,0 -0.838984,0 -1.818873,0.46538 -2.51695,0 -0.780473,-0.52032 -0.738158,-1.73648 -1.258475,-2.51695 -0.329075,-0.49362 -0.993163,-0.72786 -1.258474,-1.25848 -0.170273,-0.34054 0,-7.00876 0,-7.55084 0,-2.09746 0,-4.19492 0,-6.29238 0,-0.83898 -0.203483,-1.70302 0,-2.51695 0.227502,-0.91 1.030975,-1.60694 1.258474,-2.51695 0.93031,-3.72123 -1.415319,-1.46883 1.258475,-5.03389 1.067853,-1.42381 2.51695,-2.51695 3.775424,-3.77543 1.48294,-1.48294 2.797533,-3.32815 5.033899,-3.77542 1.234035,-0.24681 2.541387,0.2468 3.775425,0 0.919794,-0.18396 1.606944,-1.03097 2.516949,-1.25848 0.813932,-0.20348 1.677964,0 2.516947,0 0.838983,0 1.721022,-0.26531 2.516949,0 0.562809,0.18761 0.727856,0.99317 1.258475,1.25848 0.375206,0.1876 0.86051,-0.13266 1.258475,0 0.889875,0.29662 1.597154,1.07451 2.516949,1.25847 1.234035,0.24681 2.534074,-0.20689 3.775424,0 1.3085,0.21809 2.474635,0.99832 3.775425,1.25848 0.82269,0.16453 1.703014,-0.20349 2.516946,0 0.910006,0.2275 1.627074,0.96185 2.51695,1.25847 1.562298,0.52077 1.371163,-1.0331 2.516949,1.25848 0.187603,0.3752 -0.187602,0.88327 0,1.25847 0.265311,0.53062 1.258475,0.66522 1.258475,1.25848 0,0.93801 -0.961848,1.62707 -1.258475,2.51694 -0.132654,0.39797 0,0.83899 0,1.25848 0,0.89201 -0.162689,7.22547 0,7.55085 0.265311,0.53062 0.9294,0.76486 1.258475,1.25847 0.520316,0.78047 0.695669,1.76654 1.258475,2.51695 2.721634,3.62885 1.818256,1.63166 5.033899,3.77542 0.412215,0.27481 2.327079,2.47898 2.516949,2.51695 1.64538,0.32908 3.38852,-0.32907 5.0339,0 0.58173,0.11635 0.72785,0.99317 1.25847,1.25848 0.37521,0.1876 0.83898,0 1.25848,0 0.41949,0 0.83898,0 1.25847,0 1.67797,0 3.3728,0.2373 5.0339,0 1.31322,-0.1876 2.51695,-0.83899 3.77542,-1.25848 1.25848,-0.41949 2.48849,-0.93674 3.77543,-1.25847 0.40696,-0.10174 0.86051,0.13265 1.25847,0 2.49751,-0.83251 6.00492,-3.74563 7.55085,-5.0339 3.22122,-2.68435 2.32438,-2.67968 5.0339,-6.29237 0.35595,-0.4746 0.99316,-0.72786 1.25847,-1.25848 0.18761,-0.3752 0,-0.83898 0,-1.25847 0,-0.83899 0.20349,-1.70302 0,-2.51695 -0.2275,-0.91 -0.83898,-1.67797 -1.25847,-2.51695 -2.8767,-5.7534 0.78047,1.30079 -3.77543,-6.29237 -2.69311,-4.48852 -0.0888,-0.44398 -1.25847,-6.29238 -0.18396,-0.91979 -1.07452,-1.59715 -1.25848,-2.51695 -0.41134,-2.05672 0,-4.19491 0,-6.29237 0,-2.98863 -0.46776,-6.09666 1.25848,-8.80932 2.25215,-3.53909 4.89447,-6.82111 7.55085,-10.0678 6.47715,-7.91651 1.1092,-1.14652 6.29237,-5.03389 0.9492,-0.71191 1.67796,-1.67797 2.51695,-2.51695 0.41949,-0.4195 0.72785,-0.99317 1.25847,-1.25848 0.37521,-0.1876 0.83899,0 1.25848,0"
       id="path315" />
  </g>
</svg>
